<svg width="200" height="159" viewBox="0 0 200 159" fill="none" xmlns="http://www.w3.org/2000/svg">
<path d="M28.0556 20.6111L25.8889 18.4445C23.7222 16.2778 20.2222 16.3333 18.1111 18.4445L18.0556 18.5C15.8889 20.6667 15.8889 24.1667 18.0556 26.2778L20.2222 28.4445C22.3889 30.6111 25.8333 30.6111 28 28.4445L28.0556 28.3889C30.2222 26.2778 30.2222 22.7222 28.0556 20.6111Z" fill="white"/>
<path d="M11.1667 55.9445H5.5C2.44444 55.9445 0 58.3889 0 61.4445V61.5C0 64.5556 2.44444 67 5.5 67H11.1111C14.2222 67.0556 16.6667 64.6111 16.6667 61.5556V61.5C16.6667 58.3889 14.2222 55.9445 11.1667 55.9445Z" fill="white"/>
<path d="M61.1667 0.666672H61.1111C58 0.666672 55.5556 3.11112 55.5556 6.16667V11.5C55.5556 14.5556 58 17 61.0556 17H61.1111C64.2222 17.0556 66.6667 14.6111 66.6667 11.5556V6.16667C66.6667 3.11112 64.2222 0.666672 61.1667 0.666672Z" fill="white"/>
<path d="M104.167 18.5C102 16.3333 98.5 16.3333 96.3333 18.4445L94.1667 20.6111C92 22.7778 92 26.2778 94.1667 28.3889L94.2222 28.4445C96.3889 30.6111 99.8889 30.6111 102 28.4445L104.167 26.2778C106.333 24.1111 106.333 20.6667 104.167 18.5Z" fill="white"/>
<path d="M61.1111 28.1667C42.7222 28.1667 27.7778 43.1111 27.7778 61.5C27.7778 73.4197 34.0569 83.8922 43.4831 89.7854C47.9936 76.7189 60.4007 67.3333 75 67.3333C75.5745 67.3333 76.1457 67.3479 76.7131 67.3766C79.1196 58.8357 83.9395 51.3061 90.3899 45.5706C84.7325 35.2076 73.7332 28.1667 61.1111 28.1667Z" fill="white"/>
<path d="M18.0556 104.5C20.2222 106.667 23.7222 106.667 25.8889 104.5L28.0556 102.333C30.2222 100.167 30.1667 96.6667 28.0556 94.5556L28 94.5C25.8333 92.3334 22.3333 92.3334 20.1667 94.5L18 96.6667C15.8889 98.8889 15.8889 102.333 18.0556 104.5Z" fill="white"/>
<path d="M58.3333 159H166.667C185.076 159 200 144.076 200 125.667C200 110.032 189.236 96.9115 174.714 93.3114C174.903 91.6225 175 89.9059 175 88.1667C175 62.8536 154.48 42.3333 129.167 42.3333C108.171 42.3333 90.4732 56.4503 85.0464 75.7099C84.479 75.6812 83.9079 75.6667 83.3333 75.6667C64.9238 75.6667 50 90.5905 50 109C50 109.473 50.0099 109.944 50.0294 110.412C40.3041 113.836 33.3333 123.104 33.3333 134C33.3333 147.807 44.5262 159 58.3333 159Z" fill="white"/>
</svg>
